<?xml version="1.0" standalone="no"?>
<!DOCTYPE svg PUBLIC "-//W3C//DTD SVG 20010904//EN"
 "http://www.w3.org/TR/2001/REC-SVG-20010904/DTD/svg10.dtd">
<svg version="1.0" xmlns="http://www.w3.org/2000/svg"
 width="512.000000pt" height="512.000000pt" viewBox="0 0 512.000000 512.000000"
 preserveAspectRatio="xMidYMid meet">
<g transform="translate(0.000000,512.000000) scale(0.100000,-0.100000)"
fill="#4880ff" stroke="none">
<path d="M0 2560 l0 -2560 2560 0 2560 0 0 2560 0 2560 -2560 0 -2560 0 0
-2560z m2460 313 c222 -335 417 -630 434 -658 l31 -50 3 658 2 657 150 0 150
0 0 -895 0 -895 -152 0 -153 0 -430 652 -430 652 -3 -652 -2 -652 -150 0 -150
0 0 895 0 895 149 0 149 0 402 -607z"/>
</g>
</svg>
